<?xml version="1.0" standalone="no"?>
<!DOCTYPE svg PUBLIC "-//W3C//DTD SVG 20010904//EN"
 "http://www.w3.org/TR/2001/REC-SVG-20010904/DTD/svg10.dtd">
<svg version="1.0" xmlns="http://www.w3.org/2000/svg"
 width="988.000000pt" height="160.000000pt" viewBox="0 0 988.000000 160.000000"
 preserveAspectRatio="xMidYMid meet">

<g transform="translate(0.000000,160.000000) scale(0.100000,-0.100000)"
fill="#4267b2" stroke="none">
<path d="M75 1590 c-11 -4 -31 -20 -45 -35 l-25 -27 0 -729 0 -729 33 -32 32
-33 4870 0 4870 0 32 33 33 32 0 730 0 730 -33 32 -32 33 -4858 2 c-2671 1
-4866 -2 -4877 -7z m1185 -330 c19 -19 20 -33 20 -460 0 -427 -1 -441 -20
-460 -18 -18 -33 -20 -150 -20 l-130 0 0 185 0 185 59 0 c66 0 61 -7 76 98 l7
42 -71 0 -71 0 0 61 c0 91 7 99 90 99 l70 0 0 73 0 74 -87 -2 c-163 -2 -212
-52 -213 -217 l0 -88 -70 0 -70 0 0 -70 0 -70 70 0 70 0 0 -185 0 -185 -240 0
c-227 0 -241 1 -260 20 -19 19 -20 33 -20 460 0 427 1 441 20 460 19 19 33 20
460 20 427 0 441 -1 460 -20z m846 -219 c43 -22 71 -57 84 -101 l9 -30 -47 0
c-41 0 -49 4 -64 29 -22 40 -83 59 -124 40 -49 -24 -74 -73 -74 -146 0 -108
40 -163 120 -163 34 0 90 46 90 74 0 12 11 16 45 16 39 0 45 -3 45 -20 0 -47
-59 -119 -113 -139 -16 -6 -52 -11 -81 -11 -74 0 -132 33 -171 95 -28 45 -30
56 -30 139 0 99 17 147 68 194 58 54 165 64 243 23z m1274 -21 l0 -40 -45 0
-45 0 0 40 0 40 45 0 45 0 0 -40z m2050 0 l0 -40 -45 0 -45 0 0 40 0 40 45 0
45 0 0 -40z m410 -42 l0 -81 23 21 c50 47 143 36 178 -22 16 -26 19 -51 19
-163 l0 -133 -45 0 -45 0 0 118 c0 145 -12 168 -81 149 -38 -10 -49 -46 -49
-162 l0 -105 -45 0 -45 0 0 230 0 230 45 0 45 0 0 -82z m830 42 l0 -40 -116 0
-115 0 3 -52 3 -53 103 -3 103 -3 -3 -37 -3 -37 -102 -3 -103 -3 0 -94 0 -95
-45 0 -45 0 0 230 0 230 160 0 160 0 0 -40z m1260 -41 c0 -75 1 -79 17 -64 25
26 64 37 105 30 118 -20 158 -211 65 -311 -49 -53 -95 -55 -189 -6 -5 2 -8 -3
-8 -12 0 -12 -10 -16 -40 -16 l-40 0 0 230 0 230 45 0 45 0 0 -81z m1200 -41
l1 -123 55 63 c54 60 57 62 105 62 27 0 49 -3 49 -7 0 -3 -25 -32 -56 -65 -35
-36 -53 -62 -48 -70 4 -7 17 -29 29 -48 12 -19 36 -61 54 -92 l32 -58 -53 0
-53 0 -35 66 c-40 75 -45 80 -65 64 -10 -8 -15 -32 -15 -71 l0 -59 -45 0 -45
0 0 230 0 230 45 0 45 0 0 -122z m-5960 47 c0 -44 1 -45 31 -45 28 0 30 -2 27
-32 -2 -28 -8 -34 -31 -36 l-28 -3 3 -102 3 -102 28 -3 c23 -3 27 -8 27 -33 0
-28 -1 -29 -52 -29 -29 0 -58 4 -65 8 -23 14 -33 64 -33 163 0 92 -1 99 -20
99 -16 0 -20 7 -20 35 0 28 4 35 20 35 17 0 20 7 20 45 l0 45 45 0 45 0 0 -45z
m2460 0 c0 -44 1 -45 31 -45 28 0 30 -2 27 -32 -2 -28 -8 -34 -31 -36 l-28 -3
3 -102 3 -102 28 -3 c23 -3 27 -8 27 -33 0 -28 -1 -29 -52 -29 -29 0 -58 4
-65 8 -23 14 -33 64 -33 163 0 92 -1 99 -20 99 -16 0 -20 7 -20 35 0 28 4 35
20 35 17 0 20 7 20 45 l0 45 45 0 45 0 0 -45z m-3102 -64 c44 -31 67 -85 67
-157 0 -106 -66 -174 -169 -174 -67 0 -110 22 -143 71 -24 36 -28 53 -28 109
0 55 5 73 26 106 38 57 79 76 156 71 41 -3 71 -11 91 -26z m410 3 c35 -23 42
-55 42 -195 l0 -129 -45 0 -45 0 0 118 c0 140 -7 155 -65 150 -55 -4 -65 -28
-65 -160 l0 -108 -45 0 -45 0 0 170 0 170 45 0 c39 0 45 -3 45 -22 0 -20 1
-20 18 -5 42 38 110 43 160 11z m810 0 c35 -23 42 -55 42 -195 l0 -129 -45 0
-45 0 0 118 c0 140 -7 155 -65 150 -55 -4 -65 -28 -65 -160 l0 -108 -45 0 -45
0 0 170 0 170 45 0 c39 0 45 -3 45 -22 0 -20 1 -20 18 -5 42 38 110 43 160 11z
m761 -3 c39 -28 57 -62 66 -124 l7 -47 -116 0 c-113 0 -116 -1 -116 -22 0 -31
38 -68 70 -68 15 0 35 9 45 20 13 14 31 20 62 20 23 0 43 -2 43 -5 0 -4 -7
-19 -15 -35 -19 -37 -82 -70 -132 -70 -56 0 -124 38 -145 80 -25 50 -24 149 3
201 38 76 155 102 228 50z m2458 7 c44 -21 53 -51 53 -183 0 -81 4 -125 12
-133 9 -9 1 -12 -36 -12 -35 0 -52 5 -61 17 -13 17 -14 17 -33 0 -47 -42 -140
-29 -167 24 -43 83 5 148 122 164 55 7 79 25 70 50 -14 34 -107 26 -107 -10 0
-11 -11 -15 -45 -15 -31 0 -45 4 -45 14 0 27 47 81 80 94 40 14 118 9 157 -10z
m339 11 c50 -13 94 -57 94 -95 0 -22 -4 -24 -43 -24 -34 0 -44 4 -52 23 -7 16
-20 23 -47 25 -49 4 -69 -26 -69 -104 0 -48 4 -61 25 -83 22 -21 30 -24 53
-15 16 5 32 19 38 32 8 18 18 22 52 22 51 0 55 -15 21 -67 -42 -60 -132 -81
-203 -47 -95 45 -112 217 -30 299 45 44 85 53 161 34z m403 -18 c39 -28 57
-62 66 -124 l7 -47 -116 0 c-113 0 -116 -1 -116 -22 0 -31 38 -68 70 -68 15 0
35 9 45 20 13 14 31 20 62 20 23 0 43 -2 43 -5 0 -4 -7 -19 -15 -35 -19 -37
-82 -70 -132 -70 -56 0 -124 38 -145 80 -25 50 -24 149 3 201 38 76 155 102
228 50z m789 0 c44 -31 67 -85 67 -157 0 -106 -66 -174 -169 -174 -67 0 -110
22 -143 71 -24 36 -28 53 -28 109 0 55 5 73 26 106 38 57 79 76 156 71 41 -3
71 -11 91 -26z m400 0 c44 -31 67 -85 67 -157 0 -106 -66 -174 -169 -174 -67
0 -110 22 -143 71 -24 36 -28 53 -28 109 0 55 5 73 26 106 38 57 79 76 156 71
41 -3 71 -11 91 -26z m-5518 -151 l0 -170 -45 0 -45 0 0 170 0 170 45 0 45 0
0 -170z m590 54 c0 -63 5 -124 10 -135 11 -20 63 -26 87 -11 23 14 33 64 33
163 l0 99 45 0 45 0 0 -170 0 -170 -45 0 c-39 0 -45 3 -45 20 0 20 0 20 -30
-1 -19 -15 -44 -22 -72 -22 -97 0 -118 39 -118 218 l0 125 45 0 45 0 0 -116z
m950 19 c33 -151 34 -151 60 -20 l23 118 45 -3 46 -3 22 -109 c13 -59 25 -110
27 -113 4 -4 23 71 45 182 8 39 9 40 56 43 46 3 47 2 40 -20 -4 -13 -26 -88
-49 -168 l-42 -145 -46 -3 -45 -3 -17 78 c-9 43 -22 98 -29 123 l-12 45 -25
-120 -25 -120 -46 -3 c-38 -2 -47 0 -52 15 -21 69 -86 307 -86 314 0 5 20 9
44 9 l44 0 22 -97z m510 -73 l0 -170 -45 0 -45 0 0 170 0 170 45 0 45 0 0
-170z"/>
<path d="M7956 857 c-36 -27 -39 -139 -3 -174 19 -19 75 -20 93 -1 37 36 35
148 -2 175 -10 7 -30 13 -44 13 -14 0 -34 -6 -44 -13z"/>
<path d="M2390 867 c-49 -25 -61 -129 -20 -179 21 -26 82 -30 106 -6 34 34 36
142 2 173 -21 20 -61 25 -88 12z"/>
<path d="M4400 873 c-26 -10 -50 -36 -50 -55 0 -16 8 -18 65 -18 55 0 65 3 65
18 0 9 -4 22 -8 28 -7 10 -47 35 -54 33 -2 0 -10 -3 -18 -6z"/>
<path d="M6870 748 c-46 -13 -60 -26 -60 -54 0 -32 30 -46 69 -33 35 12 51 35
51 73 0 28 -6 30 -60 14z"/>
<path d="M7600 873 c-26 -10 -50 -36 -50 -55 0 -16 8 -18 65 -18 55 0 65 3 65
18 0 9 -4 22 -8 28 -7 10 -47 35 -54 33 -2 0 -10 -3 -18 -6z"/>
<path d="M8360 867 c-49 -25 -61 -129 -20 -179 21 -26 82 -30 106 -6 34 34 36
142 2 173 -21 20 -61 25 -88 12z"/>
<path d="M8760 867 c-49 -25 -61 -129 -20 -179 21 -26 82 -30 106 -6 34 34 36
142 2 173 -21 20 -61 25 -88 12z"/>
</g>
</svg>
